<?xml version="1.0" encoding="UTF-8"?>
<!DOCTYPE svg PUBLIC "-//W3C//DTD SVG 1.1//EN" "http://www.w3.org/Graphics/SVG/1.1/DTD/svg11.dtd">
<svg version="1.1" xmlns="http://www.w3.org/2000/svg" xmlns:xlink="http://www.w3.org/1999/xlink" x="0" y="0" width="773" height="651" viewBox="0, 0, 773, 651">
  <defs>
    <style type="text/css"><![CDATA[
      #Wolf > path { fill: black; }
      #Eye > path { fill: #ffca21; }
    ]]></style>
  </defs>
  <g id="Wolf">
    <path d="M3.11,541.736 L11.92,547.855 L20.264,549.763 L34.807,550.716 L48.396,550.716 L66.038,548.094 L81.535,545.233 L97.985,541.18 L113.243,536.412 L129.216,530.69 L146.142,522.823 L164.5,512.571 L180.234,499.936 L195.016,489.923 L207.413,477.526 L223.863,461.553 L205.245,451.695 L196.175,446.901 L190.992,443.143 L187.882,440.681 L186.975,436.405 L187.623,431.611 L189.696,427.724 L192.677,424.225 L196.693,420.208 L205.764,414.766 L216.389,409.713 L233.622,402.586 L261.48,391.832 L298.409,375.765 L301.519,371.489 L305.017,365.787 L307.868,361.382 L310.978,357.235 L314.735,353.219 L318.622,348.813 L321.214,345.056 L323.546,339.095 L326.397,332.746 L329.377,326.397 L333.394,318.622 L338.188,311.885 L344.856,304.95 L351.938,299.91 L358.476,296.505 L363.379,293.236 L371.96,290.512 L378.906,288.469 L386.397,286.563 L394.16,286.154 L400.561,285.609 L406.69,284.792 L415.135,284.111 L420.446,282.885 L425.894,280.434 L431.206,277.574 L436.654,271.445 L439.787,265.043 L443.328,260.276 L446.324,254.828 L450.683,249.653 L455.586,243.932 L458.991,240.391 L461.987,237.94 L467.299,233.717 L467.844,228.27 L469.614,222.549 L473.019,217.646 L477.378,213.288 L482.417,208.384 L486.23,205.66 L490.997,204.162 L497.263,201.711 L503.119,202.392 L509.657,203.481 L515.105,206.886 L518.782,209.746 L520.961,214.105 L521.097,218.599 L521.778,222.685 L522.459,226.09 L524.911,228.678 L527.499,230.857 L530.495,232.9 L532.538,235.079 L534.581,238.212 L535.807,240.255 L536.897,242.843 L536.76,246.52 L537.85,252.377 L537.85,260.957 L536.624,280.57 L535.535,298.821 L533.764,309.33 L532.947,313.53 L531.857,316.39 L530.768,318.978 L536.624,317.48 L541.527,315.709 L547.248,313.258 L555.147,309.33 L563.864,304.541 L568.767,303.043 L572.172,302.226 L575.577,303.043 L578.437,304.813 L579.663,309.33 L580.889,312.304 L580.616,316.935 L579.935,323.064 L579.118,327.76 L578.573,334.369 L575.849,341.86 L573.125,354.117 L570.951,362.289 L565.498,371.142 L558.28,385.035 L552.968,393.207 L546.975,401.106 L539.348,409.006 L533.492,414.045 L528.997,417.041 L528.18,422.217 L527.226,427.665 L525.456,432.977 L524.639,437.199 L525.183,441.012 L526.409,449.457 L528.452,458.31 L529.95,469.069 L529.678,477.786 L528.18,483.915 C528.18,483.915 521.915,506.933 521.37,508.703 C520.825,510.474 514.015,536.216 514.015,536.216 L506.388,564.681 L503.255,574.624 L501.212,579.391 L498.625,584.021 L495.083,588.788 L491.406,592.057 L490.064,599.551 L489.802,606.246 L489.277,612.679 L487.701,618.193 L483.763,625.938 L479.693,632.502 L475.886,640.641 L472.998,646.549 L470.898,652.194 L470.635,659.152 L468.797,668.341 L471.948,677.4 L474.048,684.751 L477.724,695.516 L477.199,702.474 L473.129,709.395 L467.353,713.37 L459.431,717.94 C459.431,717.94 451.728,717.182 450.212,717.688 C448.697,718.193 434.3,717.814 434.3,717.814 L395.783,714.909 L377.976,712.762 L351.33,710.489 L326.704,712.005 L291.975,714.025 L232.115,715.667 L182.358,717.182 C182.358,717.182 46.474,717.182 45.463,717.814 C44.453,718.445 19.827,717.688 19.827,717.688 L11.24,719.329 L2.021,719.456 L-4.925,718.824 L-10.987,717.561 L-13.386,714.783 L-13.765,709.395 L-13.008,704.68 L-11.618,699.25 L-11.113,694.325 L-12.881,681.57 L-12.629,657.07 L-11.745,637.622 L-12.25,627.393 L-12.502,619.184 L-12.881,613.248 L-15.028,604.787 L-16.417,596.326 L-16.165,585.339 L-15.533,573.847 L-12.865,558.276 L-6.123,544.422" />
  </g>
  <g id="Eye">
    <path d="M390.956,324.09 C418.436,294.202 423.232,317.225 389.869,327.76" />
  </g>
</svg>
